<?xml version="1.0" standalone="no"?>
<!DOCTYPE svg PUBLIC "-//W3C//DTD SVG 20010904//EN"
 "http://www.w3.org/TR/2001/REC-SVG-20010904/DTD/svg10.dtd">
<svg version="1.0" xmlns="http://www.w3.org/2000/svg"
 width="512.000000pt" height="512.000000pt" viewBox="0 0 512.000000 512.000000"
 preserveAspectRatio="xMidYMid meet">

<g transform="translate(0.000000,512.000000) scale(0.100000,-0.100000)"
fill="#000000" stroke="none">
<path d="M2498 4231 c-338 -108 -443 -544 -192 -795 299 -298 814 -90 816 330
0 175 -79 322 -223 415 -107 68 -276 90 -401 50z m304 -123 c146 -68 232 -232
206 -393 -31 -198 -225 -341 -418 -307 -284 50 -408 369 -233 599 34 44 87 83
152 110 80 33 211 30 293 -9z"/>
<path d="M2445 3003 c-164 -16 -292 -56 -457 -140 -162 -82 -233 -173 -208
-264 24 -87 129 -122 254 -84 85 26 171 30 202 10 24 -16 26 -21 22 -70 -4
-44 -31 -108 -151 -352 -80 -164 -161 -341 -178 -393 -29 -85 -33 -107 -33
-210 0 -193 54 -334 173 -450 75 -73 131 -106 246 -146 69 -23 101 -28 226
-32 111 -3 166 0 227 12 237 48 477 169 548 276 51 77 31 163 -47 202 -44 23
-96 22 -188 -2 -40 -11 -102 -23 -136 -26 -55 -6 -65 -4 -84 15 -43 43 -23
105 143 438 144 287 168 345 192 450 32 144 5 327 -68 465 -92 174 -302 287
-558 301 -47 3 -103 3 -125 0z m264 -129 c254 -58 403 -260 388 -529 -7 -125
-29 -183 -189 -504 -110 -221 -137 -267 -132 -231 4 25 21 88 38 141 35 103
34 133 -6 148 -54 20 -74 -8 -124 -174 -36 -120 -40 -276 -8 -345 28 -61 69
-107 118 -133 55 -29 187 -28 300 2 96 25 132 27 140 4 10 -25 -81 -106 -171
-151 -98 -49 -237 -97 -327 -113 -102 -17 -316 -7 -389 20 -94 33 -153 70
-212 132 -63 66 -99 137 -120 236 -38 178 -10 276 195 688 110 222 121 233 83
82 -13 -53 -12 -61 2 -84 13 -19 23 -23 48 -21 44 4 63 48 83 186 15 100 15
117 1 187 -20 97 -63 166 -126 203 -41 24 -55 27 -131 26 -47 -1 -113 -9 -146
-18 -113 -30 -160 -16 -125 37 26 40 75 74 176 122 229 107 430 136 634 89z"/>
</g>
</svg>
